<svg id="Capa_1" enable-background="new 0 0 512 512" height="512" viewBox="0 0 512 512" width="512" xmlns="http://www.w3.org/2000/svg"><path d="m109.268 86.374c0-17.242 13.977-31.22 31.22-31.22 4.098 0 8.007.797 11.591 2.232 1.497-15.848 14.836-28.249 31.075-28.249 3.04 0 5.975.443 8.753 1.253 4.769-11.138 15.827-18.944 28.71-18.944 5.369 0 10.421 1.357 14.834 3.744 5.457-9.098 15.412-15.19 26.793-15.19 11.211 0 21.037 5.912 26.543 14.786 4.222-2.131 8.99-3.339 14.043-3.339 12.883 0 23.942 7.805 28.71 18.944 2.778-.81 5.713-1.253 8.753-1.253 16.107 0 29.362 12.199 31.037 27.861 3.307-1.192 6.871-1.845 10.589-1.845 17.242 0 31.22 13.977 31.22 31.22v32.26h-303.87v-32.26z" fill="#fae2c0"/><path d="m381.919 55.154c-3.718 0-7.282.653-10.589 1.845-1.676-15.662-14.93-27.861-31.037-27.861-3.04 0-5.975.443-8.753 1.253 0 0 10.14 48.698-69.296 48.698-11.922 0-22.831 4.391-31.22 11.627-8.389-7.236-19.298-11.627-31.219-11.627-11.922 0-22.831 4.391-31.22 11.627-8.389-7.236-19.298-11.627-31.22-11.627-10.492 0-20.2 3.402-28.098 9.149v30.396h303.87v-32.26c.001-17.242-13.976-31.22-31.218-31.22z" fill="#fad59a"/><path d="m418.341 126.959c0-17.534-14.454-31.691-32.097-31.207-17.005.466-30.342 14.846-30.342 31.857v384.391h31.866c5.473 0 9.991-4.28 10.287-9.746l20.113-372.012c.113-1.079.173-2.174.173-3.283z" fill="#ec6161"/><path d="m355.902 355.013v156.987h31.866c5.473 0 9.991-4.28 10.287-9.746l11.22-207.519c-14.505 22.968-32.566 43.333-53.373 60.278z" fill="#e64343"/><path d="m324.683 95.74c-17.242 0-31.22 13.977-31.22 31.22v385.04h62.439v-385.041c0-17.242-13.977-31.219-31.219-31.219z" fill="#e8f3ff"/><path d="m293.463 391.905v120.095h62.439v-156.987c-18.771 15.288-39.779 27.787-62.439 36.892z" fill="#c7eefb"/><path d="m262.244 95.74c-17.242 0-31.22 13.977-31.22 31.22v385.04h62.439v-385.041c0-17.242-13.977-31.219-31.219-31.219z" fill="#ec6161"/><path d="m231.024 407.553v104.447h62.439v-120.095c-19.695 7.915-40.637 13.262-62.439 15.648z" fill="#e64343"/><path d="m199.805 95.74c-17.242 0-31.22 13.977-31.22 31.22v385.04h62.439v-385.041c0-17.242-13.977-31.219-31.219-31.219z" fill="#e8f3ff"/><path d="m205.008 408.976c-12.38 0-24.54-.966-36.423-2.804v105.828h62.439v-104.447c-8.548.935-17.226 1.423-26.016 1.423z" fill="#c7eefb"/><path d="m138.243 95.752c-17.643-.484-32.097 13.674-32.097 31.207 0 1.109.06 2.204.173 3.283l20.113 372.012c.295 5.465 4.813 9.746 10.287 9.746h31.866v-384.391c0-17.011-13.337-31.391-30.342-31.857z" fill="#ec6161"/><path d="m120.551 393.472 5.882 108.783c.295 5.465 4.813 9.746 10.287 9.746h31.866v-105.829c-16.619-2.57-32.693-6.857-48.035-12.7z" fill="#e64343"/><path d="m247.615 450.411c-2.5-.95-4.108-3.331-4.103-6.005 0-.016 0-.032 0-.049 0-17.136-14.791-30.816-32.303-28.971-13.492 1.422-24.354 12.291-25.802 25.781-.343 3.193-.163 6.293.459 9.23.581 2.742-.641 5.528-3.102 6.869-9.826 5.352-16.231 16.189-15.088 28.403 1.329 14.205 13.111 25.499 27.356 26.285 8.27.456 15.836-2.541 21.4-7.678 1.946-1.797 4.819-2.136 7.156-.889 4.575 2.44 9.876 3.696 15.498 3.354 14.424-.877 26.199-12.5 27.242-26.914.968-13.371-7.095-25.001-18.713-29.416z" fill="#fae2c0"/><path d="m215.216 482.023c-3.924 6.19-13.754 17.522-35.704 24.34 4.422 3.242 9.77 5.274 15.521 5.591 8.261.456 15.821-2.535 21.383-7.663 1.954-1.801 4.828-2.156 7.173-.905 4.57 2.437 9.864 3.693 15.479 3.356 14.066-.846 25.71-11.929 27.175-25.944 1.441-13.777-6.729-25.866-18.627-30.387 0 0 .052 24.012-24.909 26.953-3.064.361-5.839 2.054-7.491 4.659z" fill="#fad59a"/><path d="m173.729 450.411c-2.5-.95-4.108-3.331-4.103-6.005 0-.016 0-.032 0-.049 0-17.136-14.792-30.816-32.303-28.971-13.492 1.422-24.354 12.291-25.802 25.781-.343 3.193-.163 6.293.459 9.23.581 2.742-.641 5.528-3.102 6.869-9.826 5.352-16.231 16.189-15.088 28.403 1.329 14.205 13.111 25.499 27.356 26.285 8.27.456 15.836-2.541 21.4-7.678 1.946-1.797 4.819-2.136 7.156-.889 4.575 2.44 9.876 3.696 15.498 3.354 14.424-.877 26.199-12.5 27.242-26.914.967-13.371-7.095-25.001-18.713-29.416z" fill="#fae2c0"/><path d="m141.33 482.023c-3.924 6.19-13.754 17.522-35.704 24.34 4.422 3.242 9.77 5.274 15.521 5.591 8.261.456 15.821-2.535 21.383-7.663 1.954-1.801 4.828-2.156 7.173-.905 4.57 2.437 9.864 3.693 15.479 3.356 14.066-.846 25.71-11.929 27.175-25.944 1.441-13.777-6.729-25.866-18.627-30.387 0 0 .052 24.012-24.909 26.953-3.064.361-5.839 2.054-7.491 4.659z" fill="#fad59a"/></svg>